<?xml version="1.0" standalone="no"?>
<!DOCTYPE svg PUBLIC "-//W3C//DTD SVG 20010904//EN"
 "http://www.w3.org/TR/2001/REC-SVG-20010904/DTD/svg10.dtd">
<svg version="1.0" xmlns="http://www.w3.org/2000/svg"
 width="951.000000pt" height="951.000000pt" viewBox="0 0 951.000000 951.000000"
 preserveAspectRatio="xMidYMid meet">
<metadata>
Created by potrace 1.14, written by Peter Selinger 2001-2017
</metadata>
<g transform="translate(0.000000,951.000000) scale(0.100000,-0.100000)"
fill="#000000" stroke="none">
<path d="M3442 9480 l-32 -30 5 -162 c5 -181 14 -400 19 -465 3 -36 2 -40 -9
-29 -8 7 -23 30 -34 50 -12 20 -30 53 -42 73 -38 68 -86 138 -102 152 -9 7
-33 13 -54 13 -30 0 -43 -6 -64 -31 -25 -31 -26 -34 -25 -180 1 -128 -1 -148
-14 -143 -8 3 -22 14 -31 24 -9 10 -19 18 -23 18 -3 0 -29 16 -56 36 -69 49
-109 54 -147 17 -24 -23 -34 -50 -58 -153 -16 -69 -30 -133 -31 -142 -1 -10
-2 -19 -3 -20 -2 -3 -5 -16 -15 -68 -2 -14 -5 -25 -6 -25 -2 0 -5 -16 -14 -60
-3 -16 -8 -41 -11 -55 -3 -14 -8 -36 -11 -50 -3 -14 -8 -34 -11 -45 -4 -11 -8
-27 -9 -35 -6 -36 -58 -225 -63 -230 -3 -3 -8 -14 -9 -25 -5 -28 -55 -171 -79
-225 -11 -25 -29 -66 -39 -92 -10 -27 -22 -48 -26 -48 -5 0 -8 -9 -8 -20 0
-11 -5 -20 -12 -20 -6 0 -9 -3 -6 -6 4 -3 -13 -38 -36 -77 -24 -40 -49 -83
-57 -96 -8 -14 -18 -30 -22 -35 -4 -6 -29 -40 -55 -76 -25 -36 -49 -67 -52
-70 -3 -3 -25 -30 -50 -60 -24 -30 -67 -79 -95 -108 -27 -29 -51 -57 -53 -62
-2 -6 -10 -10 -18 -10 -9 0 -12 -4 -9 -10 3 -5 2 -10 -3 -10 -4 0 -32 -22 -62
-50 -29 -27 -55 -48 -59 -48 -10 3 -115 -54 -123 -66 -4 -6 -8 -7 -8 -3 0 4
-10 -1 -22 -13 -12 -11 -26 -20 -31 -20 -4 0 -14 -6 -22 -12 -7 -7 -25 -22
-41 -33 -64 -46 -185 -155 -238 -214 -11 -12 -42 -46 -68 -74 -26 -28 -45 -54
-43 -57 2 -4 -7 -13 -20 -20 -14 -7 -25 -16 -25 -20 0 -3 -17 -24 -38 -47 -20
-22 -50 -57 -67 -78 -16 -21 -38 -46 -47 -56 -10 -11 -18 -22 -18 -25 0 -5
-17 -28 -60 -81 -6 -7 -10 -14 -10 -17 0 -2 -20 -35 -45 -73 -25 -37 -45 -74
-45 -80 0 -7 -4 -13 -10 -13 -5 0 -10 -9 -10 -19 0 -11 -5 -23 -10 -26 -12 -7
-55 -96 -52 -107 1 -5 -3 -8 -8 -8 -6 0 -10 -9 -10 -20 0 -11 -4 -20 -8 -20
-4 0 -8 -10 -9 -22 -1 -11 -7 -24 -13 -28 -7 -4 -11 -10 -10 -14 1 -4 -13 -46
-30 -94 -18 -48 -34 -96 -36 -107 -6 -24 -7 -27 -23 -85 -8 -25 -15 -52 -16
-60 -2 -8 -4 -15 -5 -15 -1 0 -3 -9 -4 -20 -2 -11 -6 -33 -10 -50 -20 -89 -43
-240 -53 -348 -8 -84 -7 -470 0 -532 4 -27 12 -74 18 -105 5 -30 12 -64 13
-75 2 -11 8 -32 14 -46 6 -15 8 -30 5 -33 -3 -3 -1 -12 6 -19 6 -8 12 -26 13
-41 1 -14 6 -26 10 -26 4 0 7 -3 7 -7 -1 -5 0 -11 1 -15 1 -5 3 -11 4 -15 1
-5 10 -25 19 -47 9 -21 17 -42 17 -47 0 -5 5 -9 10 -9 6 0 10 -7 10 -15 0 -17
10 -35 79 -140 60 -90 189 -221 267 -271 16 -10 32 -23 36 -29 5 -6 8 -6 8 0
0 6 3 5 8 -1 8 -13 172 -94 189 -94 21 0 21 -28 2 -64 -10 -20 -19 -37 -18
-38 0 -2 -5 -16 -12 -33 -7 -16 -13 -35 -14 -41 -2 -9 -35 -105 -53 -154 -3
-8 -6 -20 -7 -26 -2 -6 -11 -38 -20 -70 -9 -33 -19 -67 -21 -77 -2 -9 -6 -25
-8 -35 -35 -144 -53 -230 -61 -289 -2 -18 -8 -49 -14 -69 -6 -21 -8 -41 -5
-46 3 -4 2 -8 -3 -8 -4 0 -8 -15 -9 -33 0 -17 -4 -49 -7 -70 -4 -21 -10 -59
-13 -85 -2 -26 -7 -58 -10 -72 -2 -14 -7 -47 -9 -75 -3 -27 -7 -68 -10 -90
-32 -285 -49 -821 -31 -1025 13 -149 22 -229 30 -265 40 -167 76 -201 226
-211 152 -10 822 -10 843 0 12 6 31 29 42 51 16 34 19 61 19 185 0 134 -5 264
-19 448 -5 59 -3 72 7 66 7 -5 20 -9 28 -11 8 -1 16 -7 18 -12 2 -6 8 -11 13
-11 4 0 34 -12 66 -26 32 -14 72 -32 88 -39 17 -7 44 -18 60 -25 64 -27 243
-82 343 -106 140 -34 142 -35 177 -39 17 -2 48 -7 70 -10 86 -13 111 -16 150
-20 22 -2 40 -4 40 -5 0 -4 158 -9 288 -10 78 0 136 -4 132 -9 -13 -22 -22
-464 -11 -541 10 -67 30 -125 50 -145 46 -45 52 -45 551 -43 l473 3 21 24 c12
13 21 20 21 15 1 -5 7 3 15 17 37 69 59 246 70 574 2 55 4 106 4 114 1 8 7 11
19 6 9 -4 25 -9 35 -11 9 -2 25 -6 35 -8 68 -17 120 -28 137 -31 216 -39 294
-47 475 -48 164 -1 292 11 435 39 11 3 35 7 54 10 19 3 44 9 55 13 12 4 29 7
40 7 17 -1 18 -12 18 -172 1 -244 27 -362 97 -435 20 -21 71 -46 91 -44 8 1
23 -2 32 -7 10 -5 19 -4 23 2 4 6 11 7 17 4 6 -4 43 -8 82 -10 39 -1 71 -3 71
-4 0 -1 25 -3 55 -4 30 -2 64 -7 74 -11 15 -6 17 -5 11 5 -5 9 -4 11 4 6 7 -4
37 -9 67 -11 30 -1 57 -5 61 -8 3 -4 14 -2 24 4 11 5 19 6 19 2 0 -14 267 -6
335 11 11 2 23 5 26 5 18 3 68 61 77 91 6 19 16 50 21 68 13 42 12 371 -1 396
-8 14 -7 17 3 11 8 -6 10 -4 4 4 -4 7 -9 38 -11 69 -6 80 -12 147 -14 147 -1
0 -4 23 -6 50 -2 28 -7 61 -11 75 -3 14 -7 44 -9 67 -3 35 -1 42 14 41 32 -1
107 14 110 22 2 5 9 7 16 4 11 -4 129 30 186 53 8 4 17 7 20 8 69 24 210 88
210 95 0 4 6 7 13 7 6 0 35 13 62 29 28 16 62 36 78 43 15 8 27 18 27 23 0 5
4 7 9 3 6 -3 14 3 20 12 6 10 11 14 11 10 0 -7 52 28 86 58 7 6 26 21 44 35
52 41 163 151 206 205 21 28 42 52 45 55 11 9 85 153 102 200 17 45 17 46 64
45 27 0 53 2 58 4 6 3 15 6 20 7 6 1 25 4 44 7 47 8 161 67 161 83 0 8 4 14
10 14 5 0 21 22 34 49 39 81 31 197 -20 308 -10 21 -23 41 -28 45 -6 4 -8 8
-3 8 4 0 -5 19 -20 43 -38 57 -35 53 -103 134 l-60 72 6 133 c12 265 8 415
-21 683 -3 28 -8 57 -11 65 -3 8 -8 35 -10 60 -3 25 -8 52 -11 60 -6 15 -19
72 -29 125 -3 17 -9 35 -14 40 -4 6 -11 26 -16 45 -10 46 -11 49 -14 58 -1 4
-2 10 -1 15 0 4 -3 7 -9 7 -5 0 -10 7 -10 16 0 15 -43 113 -83 189 -12 22 -26
50 -32 62 -5 13 -13 23 -17 23 -5 0 -8 6 -8 13 0 6 -18 36 -40 65 -22 28 -37
52 -34 52 3 0 -5 11 -18 24 -13 13 -36 41 -53 61 -30 38 -96 106 -172 176 -21
20 -83 69 -138 109 -55 39 -101 76 -103 80 -2 5 2 15 8 22 33 38 121 208 114
220 -3 4 -1 8 4 8 5 0 9 6 10 13 0 6 3 23 6 37 16 66 19 90 19 155 1 89 -8
156 -27 220 -9 28 -16 51 -16 53 0 1 -7 18 -15 38 -8 20 -15 39 -15 43 0 15
-125 240 -140 251 -4 3 -13 16 -20 29 -7 14 -17 30 -21 35 -5 6 -20 25 -34 42
-14 18 -25 36 -25 41 0 4 -11 17 -25 27 -14 10 -25 22 -25 26 0 13 -73 92
-225 244 -144 144 -169 168 -281 263 -84 71 -92 77 -124 103 -18 14 -37 30
-44 36 -6 6 -67 52 -136 103 -69 51 -133 99 -143 107 -10 8 -29 20 -43 26 -13
6 -24 15 -24 20 0 4 -5 8 -11 8 -6 0 -24 11 -41 25 -16 14 -36 25 -43 25 -7 0
-15 4 -17 9 -4 12 -193 127 -292 179 -39 20 -72 40 -74 45 -2 4 -8 7 -14 7
-25 0 -483 228 -593 296 -22 13 -47 27 -55 31 -8 3 -22 12 -30 19 -8 6 -31 21
-50 32 -81 45 -195 117 -198 124 -2 4 -12 8 -23 8 -10 0 -19 5 -19 10 0 6 -8
14 -18 18 -27 11 -177 106 -180 114 -2 5 -10 8 -18 8 -8 0 -14 5 -14 10 0 6
-5 10 -11 10 -12 0 -164 103 -200 136 -14 13 -28 24 -31 24 -4 0 -24 16 -45
35 -21 19 -41 35 -44 35 -6 0 -84 66 -136 117 -18 17 -33 29 -33 26 0 -3 -20
14 -44 38 -24 24 -72 71 -107 105 -131 125 -266 277 -382 429 -97 128 -263
389 -259 408 1 4 -2 7 -7 7 -5 0 -14 14 -21 30 -8 20 -26 36 -48 45 -46 20
-52 19 -90 -15z"/>
</g>
</svg>
